<mxfile host="Electron" modified="2023-06-10T07:45:01.155Z" agent="Mozilla/5.0 (Macintosh; Intel Mac OS X 10_15_7) AppleWebKit/537.36 (KHTML, like Gecko) draw.io/21.3.7 Chrome/112.0.5615.204 Electron/24.5.0 Safari/537.36" etag="NRXNMI7prAs-CwrpF0hX" version="21.3.7" type="device">
  <diagram name="페이지-1" id="hH8Z6R9566MFTHIuPe4Z">
    <mxGraphModel dx="1194" dy="741" grid="1" gridSize="10" guides="1" tooltips="1" connect="1" arrows="1" fold="1" page="1" pageScale="1" pageWidth="827" pageHeight="1169" math="0" shadow="0">
      <root>
        <mxCell id="0" />
        <mxCell id="1" parent="0" />
        <mxCell id="XSFRvRujJPOWSRIhUrVH-4" value="" style="edgeStyle=orthogonalEdgeStyle;rounded=0;orthogonalLoop=1;jettySize=auto;html=1;" edge="1" parent="1" source="XSFRvRujJPOWSRIhUrVH-1" target="XSFRvRujJPOWSRIhUrVH-2">
          <mxGeometry relative="1" as="geometry" />
        </mxCell>
        <mxCell id="XSFRvRujJPOWSRIhUrVH-1" value="디자인" style="rounded=0;whiteSpace=wrap;html=1;fontSize=15;" vertex="1" parent="1">
          <mxGeometry x="80" y="280" width="100" height="40" as="geometry" />
        </mxCell>
        <mxCell id="XSFRvRujJPOWSRIhUrVH-5" value="" style="edgeStyle=orthogonalEdgeStyle;rounded=0;orthogonalLoop=1;jettySize=auto;html=1;" edge="1" parent="1" source="XSFRvRujJPOWSRIhUrVH-2" target="XSFRvRujJPOWSRIhUrVH-3">
          <mxGeometry relative="1" as="geometry" />
        </mxCell>
        <mxCell id="XSFRvRujJPOWSRIhUrVH-2" value="코드 개발" style="rounded=0;whiteSpace=wrap;html=1;fontSize=15;" vertex="1" parent="1">
          <mxGeometry x="240" y="280" width="100" height="40" as="geometry" />
        </mxCell>
        <mxCell id="XSFRvRujJPOWSRIhUrVH-6" value="설계(디자인)&amp;nbsp;수정" style="edgeStyle=orthogonalEdgeStyle;rounded=0;orthogonalLoop=1;jettySize=auto;html=1;entryX=0.5;entryY=1;entryDx=0;entryDy=0;exitX=0.5;exitY=1;exitDx=0;exitDy=0;fontSize=15;" edge="1" parent="1" source="XSFRvRujJPOWSRIhUrVH-3" target="XSFRvRujJPOWSRIhUrVH-1">
          <mxGeometry relative="1" as="geometry">
            <Array as="points">
              <mxPoint x="450" y="340" />
              <mxPoint x="130" y="340" />
            </Array>
            <mxPoint as="offset" />
          </mxGeometry>
        </mxCell>
        <mxCell id="XSFRvRujJPOWSRIhUrVH-3" value="테스트" style="rounded=0;whiteSpace=wrap;html=1;fontSize=15;" vertex="1" parent="1">
          <mxGeometry x="400" y="280" width="100" height="40" as="geometry" />
        </mxCell>
        <mxCell id="XSFRvRujJPOWSRIhUrVH-16" value="" style="edgeStyle=orthogonalEdgeStyle;rounded=0;orthogonalLoop=1;jettySize=auto;html=1;" edge="1" parent="1" source="XSFRvRujJPOWSRIhUrVH-7" target="XSFRvRujJPOWSRIhUrVH-8">
          <mxGeometry relative="1" as="geometry" />
        </mxCell>
        <mxCell id="XSFRvRujJPOWSRIhUrVH-7" value="디자인" style="rounded=0;whiteSpace=wrap;html=1;fontSize=15;" vertex="1" parent="1">
          <mxGeometry x="80" y="520" width="100" height="40" as="geometry" />
        </mxCell>
        <mxCell id="XSFRvRujJPOWSRIhUrVH-10" value="설계(디자인) 수정" style="edgeStyle=orthogonalEdgeStyle;rounded=0;orthogonalLoop=1;jettySize=auto;html=1;exitX=0.5;exitY=1;exitDx=0;exitDy=0;entryX=0.5;entryY=1;entryDx=0;entryDy=0;fontSize=15;" edge="1" parent="1" source="XSFRvRujJPOWSRIhUrVH-8" target="XSFRvRujJPOWSRIhUrVH-7">
          <mxGeometry relative="1" as="geometry" />
        </mxCell>
        <mxCell id="XSFRvRujJPOWSRIhUrVH-15" value="" style="edgeStyle=orthogonalEdgeStyle;rounded=0;orthogonalLoop=1;jettySize=auto;html=1;" edge="1" parent="1" source="XSFRvRujJPOWSRIhUrVH-8" target="XSFRvRujJPOWSRIhUrVH-9">
          <mxGeometry relative="1" as="geometry" />
        </mxCell>
        <mxCell id="XSFRvRujJPOWSRIhUrVH-8" value="테스트&lt;br&gt;코드 작성" style="rounded=0;whiteSpace=wrap;html=1;fontSize=15;" vertex="1" parent="1">
          <mxGeometry x="240" y="520" width="100" height="40" as="geometry" />
        </mxCell>
        <mxCell id="XSFRvRujJPOWSRIhUrVH-13" style="edgeStyle=orthogonalEdgeStyle;rounded=0;orthogonalLoop=1;jettySize=auto;html=1;exitX=0.5;exitY=0;exitDx=0;exitDy=0;entryX=1;entryY=0.5;entryDx=0;entryDy=0;" edge="1" parent="1" source="XSFRvRujJPOWSRIhUrVH-9" target="XSFRvRujJPOWSRIhUrVH-11">
          <mxGeometry relative="1" as="geometry" />
        </mxCell>
        <mxCell id="XSFRvRujJPOWSRIhUrVH-9" value="코드 개발" style="rounded=0;whiteSpace=wrap;html=1;fontSize=15;" vertex="1" parent="1">
          <mxGeometry x="400" y="520" width="100" height="40" as="geometry" />
        </mxCell>
        <mxCell id="XSFRvRujJPOWSRIhUrVH-14" style="edgeStyle=orthogonalEdgeStyle;rounded=0;orthogonalLoop=1;jettySize=auto;html=1;exitX=0;exitY=0.5;exitDx=0;exitDy=0;entryX=0.5;entryY=0;entryDx=0;entryDy=0;" edge="1" parent="1" source="XSFRvRujJPOWSRIhUrVH-11" target="XSFRvRujJPOWSRIhUrVH-8">
          <mxGeometry relative="1" as="geometry" />
        </mxCell>
        <mxCell id="XSFRvRujJPOWSRIhUrVH-11" value="리펙토링" style="rounded=0;whiteSpace=wrap;html=1;fontSize=15;" vertex="1" parent="1">
          <mxGeometry x="320" y="460" width="100" height="40" as="geometry" />
        </mxCell>
      </root>
    </mxGraphModel>
  </diagram>
</mxfile>
